<?xml version="1.0" encoding="utf-8"?>
<!-- Generator: Adobe Illustrator 26.0.2, SVG Export Plug-In . SVG Version: 6.00 Build 0)  -->
<svg version="1.1" xmlns="http://www.w3.org/2000/svg" xmlns:xlink="http://www.w3.org/1999/xlink" x="0px" y="0px"
	 viewBox="0 0 443.32 443.32" style="enable-background:new 0 0 443.32 443.32;" xml:space="preserve">
<style type="text/css">
	.st0{fill:#FFFFFF;stroke:#000000;stroke-width:5;stroke-miterlimit:10;}
	.st1{fill:#492A1F;}
	.st2{fill:#FFFFFF;}
	.st3{fill:#FFFFFF;stroke:#000000;stroke-width:3.3973;stroke-miterlimit:10;}
	.st4{stroke:#FFFFFF;stroke-width:6;stroke-miterlimit:10;}
	.st5{stroke:#FFFFFF;stroke-width:5;stroke-miterlimit:10;}
	.st6{fill:#4B3519;}
	.st7{fill:#777777;}
	.st8{fill:#502E24;}
	.st9{display:none;}
	.st10{display:inline;fill:#653C2C;}
</style>
<g id="bg">
</g>
<g id="feet">
	<path class="st0" d="M207.08,353.96l74.35,28.8c0,0,13.46,4.3,18.82-7.84c5-11.33-4.88-15.77-4.88-15.77l-63.07-30.25
		L207.08,353.96z"/>
</g>
<g id="Calque_10">
	<path class="st1" d="M102.27,189.55c0,0-8.87,48.33-7.91,53.41c0.96,5.08,6.33,25.12,5.34,30.26c-0.99,5.14-1.42,11.27-1.42,11.27
		s4.78-10.63,6.96-16.39c2.18-5.76,4.95-23.59,4.95-23.59s4.55,11.5,4.15,17.04s5.93,20.18,5.93,20.18s-0.99-14.44-0.79-19.98
		c0.2-5.54-2.57-24.73-2.57-24.73s6.53,8.25,7.12,13.15c0.59,4.91,3.36,15.19,2.77,17.93s-2.37,6.3-2.37,6.3s2.63-0.2,4.58-7.12
		c1.95-6.92,0.37-21.69-2.4-25.91c-2.77-4.22-3.96-9.1-3.96-9.1s10.09,10.09,11.47,16.81c1.38,6.73,1.58,13.45,2.57,17.01
		c0.99,3.56,6.13,11.27,6.13,11.27s-0.99-8.09-2.18-14.83c-1.19-6.73-0.04-14.56-2.92-20.11c-2.88-5.55-4.89-12.14-4.89-12.14
		s8.01,5.74,9.99,13.25c1.98,7.52,3.36,14.44,4.95,16.81c1.58,2.37,10.68,12.07,10.68,12.07s-3.93-11.67-5.52-15.03
		c-1.6-3.36-2.68-11.15-4.76-14.77c-2.08-3.62-7.32-14.11-7.32-14.11s8.27,5.14,11.06,8.51c2.79,3.36,9.51,17.87,9.51,17.87
		s-4.75-18.07-7.91-22.22c-3.16-4.15-7.32-7.71-7.32-7.71s12.46,9.1,15.23,12.07c2.77,2.97,9.69,11.27,9.69,11.27
		s-2.57-16.02-8.9-20.18c-6.33-4.15-16.22-21.41-16.22-21.41L102.27,189.55z"/>
</g>
<g id="body">
	<g id="handBehind">
		<path class="st0" d="M240.76,250.18l71.54,22.42c0,0,16.81,5.6,11.54,22.75s-21.76,10.55-21.76,10.55l-70.55-24.73"/>
	</g>
	<g>
		<path class="st2" d="M213.79,377.81h-4.57c-31.14,0-56.61-25.48-56.61-56.61v-28.94v-28.94c0-31.14,25.48-56.61,56.61-56.61h4.57
			c31.14,0,56.61,25.48,56.61,56.61v57.87C270.4,352.33,244.93,377.81,213.79,377.81z"/>
		<path d="M213.79,380.17c-32.62,1.89-61.41-22.6-63.42-55.46c-0.29-8.54-0.05-21.5-0.12-30.16c0,0,0-30.02,0-30.02
			c-0.05-5.16,0.49-10.43,1.76-15.45c6.1-25.66,30.81-45.06,57.21-44.72c5.07-0.01,10.39-0.02,15.39,1.02
			c25.97,4.52,46.82,28.09,48.04,54.44c0.27,8.54,0.05,21.5,0.11,30.16c0,0,0,30.02,0,30.02c0.05,5.16-0.49,10.43-1.76,15.45
			C264.9,361.1,240.19,380.51,213.79,380.17L213.79,380.17z M213.79,375.45c24.28,0.31,47.02-17.54,52.63-41.15
			c1.18-4.7,1.67-9.45,1.62-14.3c0,0,0-30.02,0-30.02c-0.07-8.57,0.15-21.43-0.11-29.88c-1.13-24.23-20.32-45.93-44.2-50.09
			c-4.7-0.98-9.71-0.96-14.52-0.94c-24.28-0.31-47.02,17.55-52.63,41.15c-1.18,4.7-1.67,9.45-1.62,14.3c0,0,0,30.02,0,30.02
			c0.07,8.56-0.14,21.43,0.1,29.88C156.89,355.05,183.32,377.54,213.79,375.45L213.79,375.45z"/>
	</g>
	<g>
		<path class="st2" d="M180.02,369.63l60.7,34.5c0,0,15.29,7.51,22.2-3.84c7.46-12.25-4.17-19.32-4.17-19.32l-43.95-25.76"/>
		<path d="M181.11,367.72c14.71,8.28,44.93,25.29,59.31,33.38c0.32,0.16,1.27,0.74,1.58,0.87c6.1,2.64,14.7,3.58,18.49-2.89
			c4.02-6.13,2.04-12.71-4.24-16.17c-1.43-0.82-5.31-3.1-6.79-3.96c-8.71-5.1-18.3-10.86-26.95-16.18
			c-3.22-1.91-6.18-3.68-7.77-7.46c0,0,0.11-0.18,0.11-0.18c2.17-0.25,3.95,0.16,5.64,0.75c3.2,1.29,10.64,5.86,13.82,7.53
			c7.54,4.29,15.21,8.72,22.69,13.14c0,0,2.25,1.34,2.25,1.34c6.43,3.48,10.63,11.42,8.32,18.62c-4.01,13.42-16.76,15.19-28.07,9.82
			c-4.1-2.35-19.82-11.37-24.17-13.88c0,0-36.4-20.89-36.4-20.89L181.11,367.72L181.11,367.72z"/>
	</g>
</g>
<g id="head">
	<path class="st3" d="M312.25,144.26c0,55.35-44.85,100.25-100.2,100.25c-54.65,0-99.1-43.75-100.2-98.1
		c-0.05-0.7-0.05-1.45-0.05-2.15c0-55.35,44.9-100.2,100.25-100.2c33.15,0,62.55,16.1,80.75,40.9
		C305.05,101.56,312.25,122.06,312.25,144.26z"/>
	<ellipse class="st4" cx="284.74" cy="160.41" rx="12.23" ry="21.55"/>
	<ellipse class="st5" cx="243.9" cy="170.42" rx="13.37" ry="23.57"/>
</g>
<g id="hand_x26_hammer">
	<g id="hammer">
		
			<rect x="236.34" y="249.11" transform="matrix(0.9756 0.2196 -0.2196 0.9756 70.0956 -46.0692)" class="st6" width="11.87" height="86.29"/>
		<path class="st7" d="M278.2,230.8l-5.42,24.1l-53.61-12.07l2.49-11.07c7.17,1.61,14.34-2.92,15.96-10.09L278.2,230.8z"/>
	</g>
	<g>
		<path class="st2" d="M177.86,268.1l71.54,22.42c0,0,16.81,5.6,11.54,22.75c-5.27,17.14-21.76,10.55-21.76,10.55l-70.55-24.73"/>
		<path d="M177.93,267.88c2.74-1.58,4.81-1.01,6.84-0.32l6.16,1.87l12.31,3.73c13.16,4.03,33.24,10.01,46.15,14.08
			c5.91,1.85,11.21,5.92,13.98,11.59c0.43,0.84,0.7,1.84,1.04,2.72c0.21,0.67,0.43,2.16,0.6,2.84c0.14,1.83,0.2,3.87-0.08,5.66
			c-1.98,14.25-13.1,21.57-26.85,16.7c-2.33-0.83-7.45-2.64-9.84-3.49c-13.51-4.81-34.86-12.58-48.34-17.45
			c-1.87-0.73-7.23-2.51-9.04-3.34c-0.93-0.58-1.76-1.44-2.26-3.26l0.07-0.21c2.65-1.98,4.42-1,6.88-0.16
			c16.16,5.49,38.67,13.07,54.85,18.64c1.98,0.68,7.2,2.49,9.12,3.16c4.04,1.59,9.37,1.89,12.8-0.29
			c5.62-3.57,7.89-12.96,5.28-18.79c-1.59-3.43-5.06-6.33-8.81-7.89c-7.41-2.44-15.36-4.85-22.75-7.29
			c-8.03-2.6-28.91-9.36-36.7-11.88c0,0-6.12-1.98-6.12-1.98c-2.06-0.6-4.08-1.31-5.43-4.17L177.93,267.88L177.93,267.88z"/>
	</g>
</g>
<g id="haair">
	<path class="st1" d="M129,194c4.95-9.23,18.13-29.34,25.05-34.95c6.92-5.6,24.73-23.74,37.91-28.68s29.67-5.93,42.53-4.29
		c12.86,1.65,33.85,9.56,41.98,9.56s18.35-1.81,24.29-3.96c5.23-1.89,11.87-10.22,13.52-15.82c1.65-5.6-36.08-28.35-36.08-28.35
		l-134.03,42.2L129,194z"/>
	<path class="st8" d="M305.37,126.74c3.63,14.51,4.39,43.32,3.63,52.99c-0.74,9.4-0.62,13.85-6.26,43.27
		c12.57-17.18,14.67-38.9,14.67-38.9s4.7,9.4,2.47,28.52c8.49-14.01,9.56-20.77,10.88-29.34c1.32-8.57,1.65-55.38-3.13-70.05
		c-4.78-14.67-16.24-25.05-24.81-34.62c-8.57-9.56-31.57-24.49-39.15-28.19c-7.58-3.7-41.7-11.54-56.21-11.21
		s-59.84,17.97-70.71,28.85s-28.43,40.63-31.73,53.82c-3.3,13.19-8.97,33.55-13.07,60.08c-1,16.63-0.78,45.49,2.19,72.94
		c3.96-23.74,8.16-42.12,8.16-42.12s-3.21,26.04,0.25,46.57c3.46-18.05,9.26-41.46,9.26-41.46s-2.45,17.47,1.62,38.74
		c1.62-10.14,9.15-37.58,9.15-37.58s-4.95,29.92,1.24,43.5c0.99-12.37,6.58-45.2,8.82-53.06c2.24-7.86,1.07-22.75,7-32.47
		c5.93-9.73,7.99-20.3,24.15-30.01c16.15-9.71,25.71-24.71,31.48-29.49c5.77-4.78,46.15,4.78,58.35,9.56
		c12.2,4.78,24.23,5.1,33.96,4.45S305.37,126.74,305.37,126.74z"/>
</g>
<g id="hair" class="st9">
	<path class="st10" d="M172.81,130.69c-5.59-1-13.26-1.45-17.2-0.74c-5.47,0.99-12.26,4.81-16.09,8.67
		c-1.06,1.07-2.03,2.59-2.9,4.36c-0.01-0.14-0.01-0.29-0.01-0.43c0-11.07,8.98-20.04,20.05-20.04
		C163.29,122.51,169.17,125.73,172.81,130.69z"/>
</g>
</svg>
